# xmcd CD database file
#
# Track frame offsets:
#	150
#	30960
#	42451
#	59671
#	73738
#	88544
#	102671
#	116487
#	129006
#	141951
#	154431
#	171252
#	184558
#	195920
#	206584
#	222052
#	237333
#
# Disc length: 3371 seconds
#
# Revision: 0
# Processed by: cddbd v1.5.2PL0 Copyright (c) Steve Scherf et al.
# Submitted via: CDex 1.50
#
DISCID=f20d2911
DTITLE=Various Artist - Les rois du blues vol 2
DYEAR=1900
DGENRE=Blues
TTITLE0=Everybody's blues
TTITLE1=Boogie chillun
TTITLE2=Copenhagen woman
TTITLE3=Help yourself
TTITLE4=Boot and shoes
TTITLE5=Going fishing
TTITLE6=Baby don't you wanna go
TTITLE7=I'm in the mood
TTITLE8=I'm a country boy
TTITLE9=Vitamin a blues
TTITLE10=When my life quit me
TTITLE11=Right on that shore
TTITLE12=Kidman blues
TTITLE13=Don't cry baby
TTITLE14=Early in the morning
TTITLE15=Christina, Christina blues
TTITLE16=Unde sam's blues
EXTD=
EXTT0=
EXTT1=
EXTT2=
EXTT3=
EXTT4=
EXTT5=
EXTT6=
EXTT7=
EXTT8=
EXTT9=
EXTT10=
EXTT11=
EXTT12=
EXTT13=
EXTT14=
EXTT15=
EXTT16=
PLAYORDER=
